# xmcd
#
# Track frame offsets: 
#        150
#        18897
#        35530
#        59977
#        77857
#        95635
#        120817
#        148920
#        163217
#        186367
#        235360
#        270235
#
# Disc length: 3909 seconds
#
# Revision: 2
# Processed by: cddbd v1.5.2PL0 Copyright (c) Steve Scherf et al.
# Submitted via: ExactAudioCopy v1.0b3
#
DISCID=a80f430c
DTITLE=The Blues Band - Live In Poland
DYEAR=1996
DGENRE=Blues
TTITLE0=Sweet Home Chicago
TTITLE1=Let The Good Times Roll
TTITLE2=That Same Thing
TTITLE3=That's It, I Quit
TTITLE4=Grits Ain't Groceries
TTITLE5=The Bad Boy
TTITLE6=Hallelujah I Love Her So
TTITLE7=No More Diggin'
TTITLE8=Mean Old World
TTITLE9=29 Ways - Bo Diddley - 5-4-3-2-1
TTITLE10=Don't Know Which Way To Go
TTITLE11=Greenstuff
EXTD=
EXTT0=
EXTT1=
EXTT2=
EXTT3=
EXTT4=
EXTT5=
EXTT6=
EXTT7=
EXTT8=
EXTT9=
EXTT10=
EXTT11=
PLAYORDER=
